<mxfile host="app.diagrams.net" modified="2023-06-15T14:49:11.476Z" agent="Mozilla/5.0 (Windows NT 10.0; Win64; x64) AppleWebKit/537.36 (KHTML, like Gecko) Chrome/114.0.0.0 Safari/537.36" etag="r64rZuh_ufyhSA-01SbI" version="21.4.0" type="device">
  <diagram name="Page-1" id="pKyDtd8RM_vbDDXeWl4n">
    <mxGraphModel dx="880" dy="427" grid="1" gridSize="10" guides="1" tooltips="1" connect="1" arrows="1" fold="1" page="1" pageScale="1" pageWidth="850" pageHeight="1100" math="0" shadow="0">
      <root>
        <mxCell id="0" />
        <mxCell id="1" parent="0" />
        <mxCell id="2Tvs41pjNGYoI8jDAxK2-14" value="" style="edgeStyle=orthogonalEdgeStyle;rounded=0;orthogonalLoop=1;jettySize=auto;html=1;" edge="1" parent="1" source="2Tvs41pjNGYoI8jDAxK2-1" target="2Tvs41pjNGYoI8jDAxK2-4">
          <mxGeometry relative="1" as="geometry">
            <Array as="points">
              <mxPoint x="260" y="90" />
              <mxPoint x="260" y="90" />
            </Array>
          </mxGeometry>
        </mxCell>
        <mxCell id="2Tvs41pjNGYoI8jDAxK2-1" value="Start" style="ellipse;whiteSpace=wrap;html=1;" vertex="1" parent="1">
          <mxGeometry x="220" y="10" width="80" height="50" as="geometry" />
        </mxCell>
        <mxCell id="2Tvs41pjNGYoI8jDAxK2-4" value="Drag and drop an assign activity on the new sequence. Create two variables&lt;br&gt;1. &quot;names&quot;; type- array of strings; value-&amp;nbsp;&quot;Ann&quot;, &quot;Mwangi&quot;,&amp;nbsp; &quot;Amara&quot;, &quot;Njuguna&quot;, &quot;Amanda&quot;, &quot;Nyawira&quot;, &quot;Kim&quot;, &quot;Alex&quot;&lt;br&gt;2. &quot;count&quot;; type-int32; value-0" style="rounded=1;whiteSpace=wrap;html=1;fillColor=#dae8fc;strokeColor=#6c8ebf;" vertex="1" parent="1">
          <mxGeometry x="30" y="80" width="490" height="90" as="geometry" />
        </mxCell>
        <mxCell id="2Tvs41pjNGYoI8jDAxK2-5" value="Drag and drop for each activity below assign activity. Iterate through the names array" style="rounded=1;whiteSpace=wrap;html=1;fillColor=#dae8fc;strokeColor=#6c8ebf;" vertex="1" parent="1">
          <mxGeometry x="50" y="230" width="410" height="40" as="geometry" />
        </mxCell>
        <mxCell id="2Tvs41pjNGYoI8jDAxK2-6" value="Drag and drop an if activity inside the for each activity. In the properties set the condition that &quot;if name.startswith(&quot;A&quot;)&quot;" style="rounded=1;whiteSpace=wrap;html=1;fillColor=#dae8fc;strokeColor=#6c8ebf;" vertex="1" parent="1">
          <mxGeometry x="70" y="350" width="410" height="60" as="geometry" />
        </mxCell>
        <mxCell id="2Tvs41pjNGYoI8jDAxK2-7" value="Drag and drop an assign activity inside the if activity. In the properties set the value of the variable count to &#39;count+1&quot; to increment the value of variable count each time it comes across a name starting with letter &quot;A&quot;" style="rounded=1;whiteSpace=wrap;html=1;fillColor=#dae8fc;strokeColor=#6c8ebf;" vertex="1" parent="1">
          <mxGeometry x="50" y="480" width="475" height="50" as="geometry" />
        </mxCell>
        <mxCell id="2Tvs41pjNGYoI8jDAxK2-35" value="" style="edgeStyle=orthogonalEdgeStyle;rounded=0;orthogonalLoop=1;jettySize=auto;html=1;" edge="1" parent="1" source="2Tvs41pjNGYoI8jDAxK2-30" target="2Tvs41pjNGYoI8jDAxK2-8">
          <mxGeometry relative="1" as="geometry" />
        </mxCell>
        <mxCell id="2Tvs41pjNGYoI8jDAxK2-8" value="Drag and drop a message box after the for each activity. Let the text be &quot;count&quot; to display the number of words" style="rounded=1;whiteSpace=wrap;html=1;fillColor=#dae8fc;strokeColor=#6c8ebf;" vertex="1" parent="1">
          <mxGeometry x="70" y="590" width="375" height="60" as="geometry" />
        </mxCell>
        <mxCell id="2Tvs41pjNGYoI8jDAxK2-34" value="" style="edgeStyle=orthogonalEdgeStyle;rounded=0;orthogonalLoop=1;jettySize=auto;html=1;" edge="1" parent="1" source="2Tvs41pjNGYoI8jDAxK2-33" target="2Tvs41pjNGYoI8jDAxK2-11">
          <mxGeometry relative="1" as="geometry">
            <Array as="points">
              <mxPoint x="260" y="700" />
              <mxPoint x="260" y="700" />
            </Array>
          </mxGeometry>
        </mxCell>
        <mxCell id="2Tvs41pjNGYoI8jDAxK2-11" value="END" style="ellipse;whiteSpace=wrap;html=1;" vertex="1" parent="1">
          <mxGeometry x="210" y="710" width="100" height="60" as="geometry" />
        </mxCell>
        <mxCell id="2Tvs41pjNGYoI8jDAxK2-15" value="" style="endArrow=none;dashed=1;html=1;dashPattern=1 3;strokeWidth=2;rounded=0;entryX=0.916;entryY=1.022;entryDx=0;entryDy=0;entryPerimeter=0;" edge="1" parent="1" target="2Tvs41pjNGYoI8jDAxK2-4">
          <mxGeometry width="50" height="50" relative="1" as="geometry">
            <mxPoint x="40" y="200" as="sourcePoint" />
            <mxPoint x="460" y="120" as="targetPoint" />
            <Array as="points">
              <mxPoint x="479" y="200" />
            </Array>
          </mxGeometry>
        </mxCell>
        <mxCell id="2Tvs41pjNGYoI8jDAxK2-17" value="" style="endArrow=none;dashed=1;html=1;dashPattern=1 3;strokeWidth=2;rounded=0;entryX=0.02;entryY=1.022;entryDx=0;entryDy=0;entryPerimeter=0;" edge="1" parent="1" target="2Tvs41pjNGYoI8jDAxK2-4">
          <mxGeometry width="50" height="50" relative="1" as="geometry">
            <mxPoint x="40" y="200" as="sourcePoint" />
            <mxPoint x="60" y="170" as="targetPoint" />
          </mxGeometry>
        </mxCell>
        <mxCell id="2Tvs41pjNGYoI8jDAxK2-19" value="" style="edgeStyle=orthogonalEdgeStyle;rounded=0;orthogonalLoop=1;jettySize=auto;html=1;" edge="1" parent="1" source="2Tvs41pjNGYoI8jDAxK2-18" target="2Tvs41pjNGYoI8jDAxK2-5">
          <mxGeometry relative="1" as="geometry" />
        </mxCell>
        <mxCell id="2Tvs41pjNGYoI8jDAxK2-18" value="UiPath studio" style="text;html=1;align=center;verticalAlign=middle;resizable=0;points=[];autosize=1;strokeColor=none;fillColor=none;" vertex="1" parent="1">
          <mxGeometry x="210" y="170" width="90" height="30" as="geometry" />
        </mxCell>
        <mxCell id="2Tvs41pjNGYoI8jDAxK2-20" value="" style="endArrow=none;dashed=1;html=1;dashPattern=1 3;strokeWidth=2;rounded=0;entryX=0.946;entryY=1.05;entryDx=0;entryDy=0;entryPerimeter=0;" edge="1" parent="1" target="2Tvs41pjNGYoI8jDAxK2-5">
          <mxGeometry width="50" height="50" relative="1" as="geometry">
            <mxPoint x="60" y="300" as="sourcePoint" />
            <mxPoint x="460" y="290" as="targetPoint" />
            <Array as="points">
              <mxPoint x="438" y="300" />
            </Array>
          </mxGeometry>
        </mxCell>
        <mxCell id="2Tvs41pjNGYoI8jDAxK2-21" value="" style="endArrow=none;dashed=1;html=1;dashPattern=1 3;strokeWidth=2;rounded=0;entryX=0.024;entryY=0.95;entryDx=0;entryDy=0;entryPerimeter=0;" edge="1" parent="1" target="2Tvs41pjNGYoI8jDAxK2-5">
          <mxGeometry width="50" height="50" relative="1" as="geometry">
            <mxPoint x="60" y="300" as="sourcePoint" />
            <mxPoint x="70" y="270" as="targetPoint" />
          </mxGeometry>
        </mxCell>
        <mxCell id="2Tvs41pjNGYoI8jDAxK2-22" value="UiPath studio" style="text;html=1;align=center;verticalAlign=middle;resizable=0;points=[];autosize=1;strokeColor=none;fillColor=none;" vertex="1" parent="1">
          <mxGeometry x="210" y="270" width="90" height="30" as="geometry" />
        </mxCell>
        <mxCell id="2Tvs41pjNGYoI8jDAxK2-25" value="" style="endArrow=classic;html=1;rounded=0;exitX=0.522;exitY=1.033;exitDx=0;exitDy=0;exitPerimeter=0;entryX=0.456;entryY=-0.033;entryDx=0;entryDy=0;entryPerimeter=0;" edge="1" parent="1" source="2Tvs41pjNGYoI8jDAxK2-22" target="2Tvs41pjNGYoI8jDAxK2-6">
          <mxGeometry width="50" height="50" relative="1" as="geometry">
            <mxPoint x="410" y="340" as="sourcePoint" />
            <mxPoint x="460" y="290" as="targetPoint" />
          </mxGeometry>
        </mxCell>
        <mxCell id="2Tvs41pjNGYoI8jDAxK2-26" value="" style="endArrow=none;dashed=1;html=1;dashPattern=1 3;strokeWidth=2;rounded=0;entryX=0.902;entryY=1.033;entryDx=0;entryDy=0;entryPerimeter=0;exitX=0.024;exitY=1.033;exitDx=0;exitDy=0;exitPerimeter=0;" edge="1" parent="1" source="2Tvs41pjNGYoI8jDAxK2-6" target="2Tvs41pjNGYoI8jDAxK2-6">
          <mxGeometry width="50" height="50" relative="1" as="geometry">
            <mxPoint x="410" y="540" as="sourcePoint" />
            <mxPoint x="460" y="490" as="targetPoint" />
            <Array as="points">
              <mxPoint x="80" y="440" />
              <mxPoint x="440" y="440" />
            </Array>
          </mxGeometry>
        </mxCell>
        <mxCell id="2Tvs41pjNGYoI8jDAxK2-28" value="" style="edgeStyle=orthogonalEdgeStyle;rounded=0;orthogonalLoop=1;jettySize=auto;html=1;" edge="1" parent="1" source="2Tvs41pjNGYoI8jDAxK2-27" target="2Tvs41pjNGYoI8jDAxK2-7">
          <mxGeometry relative="1" as="geometry">
            <Array as="points">
              <mxPoint x="260" y="460" />
              <mxPoint x="260" y="460" />
            </Array>
          </mxGeometry>
        </mxCell>
        <mxCell id="2Tvs41pjNGYoI8jDAxK2-27" value="UiPath studio" style="text;html=1;align=center;verticalAlign=middle;resizable=0;points=[];autosize=1;strokeColor=none;fillColor=none;" vertex="1" parent="1">
          <mxGeometry x="215" y="408" width="90" height="30" as="geometry" />
        </mxCell>
        <mxCell id="2Tvs41pjNGYoI8jDAxK2-29" value="" style="endArrow=none;dashed=1;html=1;dashPattern=1 3;strokeWidth=2;rounded=0;entryX=0.903;entryY=1.04;entryDx=0;entryDy=0;entryPerimeter=0;" edge="1" parent="1" target="2Tvs41pjNGYoI8jDAxK2-7">
          <mxGeometry width="50" height="50" relative="1" as="geometry">
            <mxPoint x="80" y="530" as="sourcePoint" />
            <mxPoint x="460" y="580" as="targetPoint" />
            <Array as="points">
              <mxPoint x="80" y="560" />
              <mxPoint x="480" y="560" />
            </Array>
          </mxGeometry>
        </mxCell>
        <mxCell id="2Tvs41pjNGYoI8jDAxK2-30" value="UiPath Studio" style="text;html=1;align=center;verticalAlign=middle;resizable=0;points=[];autosize=1;strokeColor=none;fillColor=none;" vertex="1" parent="1">
          <mxGeometry x="210" y="530" width="100" height="30" as="geometry" />
        </mxCell>
        <mxCell id="2Tvs41pjNGYoI8jDAxK2-32" value="" style="endArrow=none;dashed=1;html=1;dashPattern=1 3;strokeWidth=2;rounded=0;entryX=0.035;entryY=1.083;entryDx=0;entryDy=0;entryPerimeter=0;exitX=0.889;exitY=1;exitDx=0;exitDy=0;exitPerimeter=0;" edge="1" parent="1" source="2Tvs41pjNGYoI8jDAxK2-8" target="2Tvs41pjNGYoI8jDAxK2-8">
          <mxGeometry width="50" height="50" relative="1" as="geometry">
            <mxPoint x="310" y="710" as="sourcePoint" />
            <mxPoint x="360" y="660" as="targetPoint" />
            <Array as="points">
              <mxPoint x="400" y="680" />
              <mxPoint x="80" y="680" />
            </Array>
          </mxGeometry>
        </mxCell>
        <mxCell id="2Tvs41pjNGYoI8jDAxK2-33" value="UiPath studio" style="text;html=1;align=center;verticalAlign=middle;resizable=0;points=[];autosize=1;strokeColor=none;fillColor=none;" vertex="1" parent="1">
          <mxGeometry x="200" y="650" width="90" height="30" as="geometry" />
        </mxCell>
      </root>
    </mxGraphModel>
  </diagram>
</mxfile>
